<svg xmlns="http://www.w3.org/2000/svg" width="269" height="42" viewBox="0 0 269 42">
    <g fill="none" fill-rule="nonzero">
        <path fill="#A32035" d="M18 23l-9-6.453V6l9 6.453z"/>
        <path fill="#004987" d="M18 36L0 22.714V12l18 13.286z"/>
        <path fill="#00A0DF" d="M18 36l18-13.286V12L18 25.286z"/>
        <path fill="#FFA400" d="M18 23l9-6.453V6l-9 6.453z"/>
        <path fill="#E08433" d="M36 23l-9-6.453V6l9 6.453z"/>
        <path fill="#DB0032" d="M0 23l9-6.453V6l-9 6.453z"/>
        <path fill="#24272A" d="M47.002 18.602a8.673 8.673 0 0 1 .756-3.743 7.496 7.496 0 0 1 2.057-2.676 9.203 9.203 0 0 1 3.077-1.616 12.76 12.76 0 0 1 3.854-.556c1.696-.034 3.38.313 4.927 1.013a8.17 8.17 0 0 1 3.45 3.03 8.243 8.243 0 0 1 3.411-3.03 10.998 10.998 0 0 1 4.827-1.022c1.288-.01 2.57.17 3.807.533a8.596 8.596 0 0 1 3.045 1.61 7.667 7.667 0 0 1 2.038 2.676 8.717 8.717 0 0 1 .747 3.737v14.436h-5.05v-12.7c0-2.05-.456-3.513-1.37-4.39-.913-.878-2.154-1.315-3.722-1.313a5.24 5.24 0 0 0-3.785 1.47c-1.017.983-1.526 2.573-1.528 4.77v12.163h-5.04V20.83c0-2.199-.51-3.788-1.53-4.769a5.238 5.238 0 0 0-3.785-1.47c-1.537 0-2.776.445-3.72 1.335-.942.89-1.415 2.362-1.417 4.418V33h-5.049V18.602zM88.003 22.872a15.748 15.748 0 0 1 .89-5.52 11.222 11.222 0 0 1 2.487-4.02 10.488 10.488 0 0 1 3.867-2.482c1.61-.584 3.31-.871 5.02-.849a11.97 11.97 0 0 1 4.667.883 11.5 11.5 0 0 1 3.71 2.46 11.125 11.125 0 0 1 2.468 3.754c.602 1.509.903 3.122.887 4.748a12.755 12.755 0 0 1-.865 4.748 11.19 11.19 0 0 1-2.401 3.732 10.933 10.933 0 0 1-3.6 2.437c-1.43.59-2.964.887-4.51.87a9.862 9.862 0 0 1-4.488-.984 8.797 8.797 0 0 1-3.065-2.412V42h-5.067V22.872zM99.91 29.13c.955.01 1.902-.18 2.78-.56a6.534 6.534 0 0 0 2.177-1.542 6.778 6.778 0 0 0 1.397-2.324c.334-.931.5-1.915.491-2.905a8.05 8.05 0 0 0-.49-2.85 6.597 6.597 0 0 0-1.398-2.282 6.756 6.756 0 0 0-2.178-1.519 6.845 6.845 0 0 0-2.779-.557 7.036 7.036 0 0 0-2.775.535 6.46 6.46 0 0 0-3.6 3.732 8.593 8.593 0 0 0 0 5.834c.316.86.791 1.652 1.4 2.336a6.26 6.26 0 0 0 2.156 1.541c.89.383 1.85.574 2.82.56zM126.99 9a12.34 12.34 0 0 1 4.744.896 11.583 11.583 0 0 1 3.817 2.514 11.566 11.566 0 0 1 2.531 3.804 12.772 12.772 0 0 1 0 9.509 11.566 11.566 0 0 1-2.531 3.804 11.897 11.897 0 0 1-3.817 2.546 12.555 12.555 0 0 1-9.468 0 11.91 11.91 0 0 1-3.82-2.537 11.567 11.567 0 0 1-2.528-3.803 12.772 12.772 0 0 1 0-9.51 11.567 11.567 0 0 1 2.528-3.803 11.601 11.601 0 0 1 3.81-2.524A12.34 12.34 0 0 1 126.991 9zm0 19.427a6.681 6.681 0 0 0 2.748-.571 6.191 6.191 0 0 0 2.163-1.604 7.506 7.506 0 0 0 1.397-2.354 8.262 8.262 0 0 0 .504-2.922 8.621 8.621 0 0 0-.504-2.963 7.148 7.148 0 0 0-1.4-2.345 6.335 6.335 0 0 0-2.163-1.561 7.027 7.027 0 0 0-5.52 0 6.434 6.434 0 0 0-2.135 1.561 7.2 7.2 0 0 0-1.394 2.38 8.555 8.555 0 0 0-.503 2.964c-.011.998.16 1.989.503 2.921.32.868.793 1.666 1.394 2.354a6.294 6.294 0 0 0 2.139 1.604 6.65 6.65 0 0 0 2.772.536zM148.186 32a340.42 340.42 0 0 1-3.528-8.544c-.92-2.338-1.65-4.273-2.19-5.806-.54-1.533-.92-2.717-1.14-3.55a8.248 8.248 0 0 1-.328-1.773 2.39 2.39 0 0 1 .62-1.623c.407-.465 1.037-.701 1.884-.701a5.112 5.112 0 0 1 1.51.177c.247.072.488.16.724.26.35 1.287.743 2.654 1.182 4.1.438 1.446.891 2.884 1.359 4.314.467 1.434.927 2.8 1.38 4.1.453 1.297.853 2.46 1.204 3.482.31-.904.664-1.943 1.03-3.104.366-1.16.745-2.374 1.139-3.615.394-1.242.782-2.483 1.16-3.771a502.8 502.8 0 0 0 1.052-3.613 3.84 3.84 0 0 1 .987-1.731c.413-.395 1.092-.593 2.035-.593a4.82 4.82 0 0 1 1.579.242c.465.161.757.27.875.329.378 1.312.792 2.692 1.24 4.14.45 1.448.888 2.873 1.316 4.273.439 1.403.87 2.748 1.294 4.035.424 1.287.811 2.425 1.16 3.414a196.167 196.167 0 0 0 2.343-6.617 148.733 148.733 0 0 0 2.212-7.184 4.656 4.656 0 0 1 1.03-1.996c.422-.422 1.074-.62 1.949-.62a4.147 4.147 0 0 1 1.914.372c.286.139.56.3.822.48-.236.963-.642 2.294-1.241 3.989-.599 1.694-1.241 3.525-1.97 5.5a279.745 279.745 0 0 1-2.32 6.045 161.81 161.81 0 0 1-2.325 5.586h-5.156a66.522 66.522 0 0 1-.93-2.694l-1.295-3.88a172.257 172.257 0 0 1-1.377-4.313l-1.241-4.056c-.379 1.241-.798 2.579-1.241 4.056a211.806 211.806 0 0 1-1.36 4.314c-.452 1.4-.868 2.697-1.24 3.88a41.766 41.766 0 0 1-.93 2.693l-5.188.003zM198.14 30.675c-.244.15-.618.362-1.13.641a11.9 11.9 0 0 1-1.917.77c-.874.27-1.763.483-2.663.641-1.096.19-2.207.28-3.319.273-1.605.013-3.2-.248-4.718-.77a10.958 10.958 0 0 1-3.836-2.286 10.793 10.793 0 0 1-2.596-3.713 12.664 12.664 0 0 1-.96-5.047 12.86 12.86 0 0 1 .925-4.958 11.337 11.337 0 0 1 2.573-3.848 11.584 11.584 0 0 1 3.894-2.494 13.19 13.19 0 0 1 4.897-.882 12.93 12.93 0 0 1 4.156.61 9.69 9.69 0 0 1 3.05 1.628 6.975 6.975 0 0 1 1.918 8.151 5.204 5.204 0 0 1-2.078 2.219 12.373 12.373 0 0 1-4.018 1.45c-2.11.382-4.25.556-6.394.519-.6 0-1.163 0-1.691-.023-.527-.022-1.09-.038-1.694-.067a5.65 5.65 0 0 0 2.237 3.736c1.252.949 3.035 1.424 5.352 1.426a12.255 12.255 0 0 0 3.948-.635c.462-.154.915-.335 1.356-.541.374-.183.639-.321.834-.41l1.873 3.61zm-15.844-10.73c.69.03 1.352.046 1.985.046h1.896a20.546 20.546 0 0 0 4.018-.32 8.196 8.196 0 0 0 2.401-.809 2.533 2.533 0 0 0 1.129-1.132c.18-.415.272-.862.271-1.315a2.85 2.85 0 0 0-1.378-2.565 6.334 6.334 0 0 0-3.407-.86 6.862 6.862 0 0 0-2.935.59 6.35 6.35 0 0 0-2.12 1.562 7.113 7.113 0 0 0-1.333 2.245 8.082 8.082 0 0 0-.527 2.559zM203 18.603c0-2.736.798-4.853 2.395-6.352 1.596-1.499 3.802-2.249 6.618-2.251 1.774 0 3.218.26 4.332.78 1.113.52 1.665 1.314 1.655 2.383a2.979 2.979 0 0 1-.401 1.472 2.978 2.978 0 0 1-.656.893 10.993 10.993 0 0 0-1.775-.67 8.515 8.515 0 0 0-2.395-.315c-3.3.002-4.95 1.846-4.95 5.532V33h-4.82L203 18.603zM241.14 30.675c-.24.15-.618.362-1.13.641-.616.312-1.257.57-1.918.77-.873.27-1.763.483-2.663.64-1.096.19-2.207.282-3.319.273a14.114 14.114 0 0 1-4.716-.77 10.903 10.903 0 0 1-3.837-2.285 10.71 10.71 0 0 1-2.596-3.713 12.605 12.605 0 0 1-.96-5.048c-.02-1.697.294-3.382.925-4.957a11.385 11.385 0 0 1 2.558-3.848 11.599 11.599 0 0 1 3.91-2.494 13.18 13.18 0 0 1 4.898-.882c1.41-.024 2.813.181 4.157.61a9.672 9.672 0 0 1 3.047 1.628 6.674 6.674 0 0 1 2.503 5.278 6.876 6.876 0 0 1-.585 2.886 5.195 5.195 0 0 1-2.075 2.219 12.376 12.376 0 0 1-4.019 1.45 32.728 32.728 0 0 1-6.41.519c-.605 0-1.167 0-1.695-.023-.528-.022-1.09-.038-1.691-.067a5.627 5.627 0 0 0 2.219 3.697c1.246.949 3.03 1.425 5.349 1.427a12.21 12.21 0 0 0 3.949-.635c.461-.155.914-.335 1.355-.542.377-.183.64-.32.834-.41l1.91 3.636zm-15.847-10.73c.693.03 1.355.046 1.986.046h1.896a20.552 20.552 0 0 0 4.019-.321 8.223 8.223 0 0 0 2.395-.808 2.54 2.54 0 0 0 1.125-1.132c.18-.415.272-.862.272-1.315a2.853 2.853 0 0 0-1.375-2.565 6.355 6.355 0 0 0-3.411-.86 6.838 6.838 0 0 0-2.932.59 6.364 6.364 0 0 0-2.123 1.562 7.059 7.059 0 0 0-1.33 2.245 8.085 8.085 0 0 0-.522 2.559zM263.978 2.338c0-.793.228-1.38.686-1.759a3.035 3.035 0 0 1 1.979-.573c.496-.005.99.062 1.466.2.444.13.74.227.887.286v19.82c.041 1.9-.267 3.79-.909 5.581a11.043 11.043 0 0 1-2.517 3.956 10.323 10.323 0 0 1-3.776 2.372 13.855 13.855 0 0 1-4.748.778c-1.65.018-3.286-.28-4.82-.878a11.61 11.61 0 0 1-3.799-2.418 10.988 10.988 0 0 1-2.517-3.692 11.83 11.83 0 0 1-.91-4.668 12.272 12.272 0 0 1 .866-4.67 11.23 11.23 0 0 1 2.398-3.69 10.766 10.766 0 0 1 3.606-2.394 11.636 11.636 0 0 1 4.509-.856 9.898 9.898 0 0 1 4.53.974 9.022 9.022 0 0 1 3.069 2.397V2.338zm0 19.026a7.663 7.663 0 0 0-.513-2.8 7.179 7.179 0 0 0-1.397-2.289 6.33 6.33 0 0 0-2.156-1.515 6.953 6.953 0 0 0-2.778-.558 6.679 6.679 0 0 0-4.953 2.042 6.475 6.475 0 0 0-1.4 2.266 8.11 8.11 0 0 0-.488 2.854 7.946 7.946 0 0 0 .488 2.836 6.482 6.482 0 0 0 1.4 2.24 6.665 6.665 0 0 0 2.156 1.495 6.832 6.832 0 0 0 2.797.55c.953.01 1.897-.17 2.778-.528a6.344 6.344 0 0 0 2.156-1.45 6.606 6.606 0 0 0 1.397-2.242 7.91 7.91 0 0 0 .513-2.9z"/>
    </g>
</svg>
